<?xml version="1.0" encoding="iso-8859-1"?>
<!-- Generator: Adobe Illustrator 16.0.0, SVG Export Plug-In . SVG Version: 6.00 Build 0)  -->
<!DOCTYPE svg PUBLIC "-//W3C//DTD SVG 1.1//EN" "http://www.w3.org/Graphics/SVG/1.1/DTD/svg11.dtd">
<svg xmlns="http://www.w3.org/2000/svg" xmlns:xlink="http://www.w3.org/1999/xlink" version="1.1" id="Capa_1" x="0px" y="0px" width="512px" height="512px" viewBox="0 0 98.432 98.432" style="enable-background:new 0 0 98.432 98.432;" xml:space="preserve">
<g>
	<g>
		<path d="M49.246,37.366v-2.035c0-0.818-0.463-1.563-1.194-1.927c-0.732-0.367-1.604-0.282-2.257,0.208l-9.804,7.403    c-0.542,0.406-0.858,1.044-0.858,1.72c0,0.674,0.316,1.311,0.858,1.717l9.804,7.399c0.653,0.489,1.525,0.571,2.257,0.207    c0.73-0.366,1.194-1.112,1.194-1.929v-1.9c8.287,0.811,15.023,6.995,16.441,15.083c0.32,1.729,1.811,2.976,3.561,2.976h3.602    c1.049,0,2.055-0.447,2.734-1.246c0.689-0.791,0.993-1.848,0.833-2.893C74.385,48.664,63.104,38.207,49.246,37.366z" fill="#FFFFFF"/>
		<path d="M62.447,79.344l-9.807-7.396c-0.65-0.492-1.524-0.574-2.256-0.211c-0.731,0.368-1.194,1.112-1.194,1.93v1.898    c-8.289-0.811-15.024-6.993-16.441-15.083c-0.321-1.728-1.809-2.974-3.56-2.974h-3.603c-1.052,0-2.054,0.447-2.735,1.246    c-0.689,0.791-0.995,1.848-0.834,2.893C24.051,75.129,35.331,85.59,49.189,86.43v2.035c0,0.816,0.463,1.564,1.194,1.928    c0.732,0.365,1.606,0.283,2.257-0.209l9.806-7.404c0.538-0.406,0.856-1.043,0.856-1.717C63.303,80.387,62.984,79.75,62.447,79.344    z" fill="#FFFFFF"/>
		<path d="M78.73,22.878c-0.699-0.058-1.342-0.416-1.76-0.98c-4.012-5.43-10.453-8.78-17.307-8.78c-0.436,0-0.872,0.014-1.309,0.04    c-0.58,0.035-1.152-0.138-1.617-0.488c-4.17-3.151-9.225-4.858-14.52-4.858c-9.481,0-17.896,5.498-21.82,13.822    c-0.352,0.746-1.056,1.263-1.873,1.377C8.074,24.463,0,33.46,0,44.308C0,55.233,8.205,64.238,18.77,65.59    c-0.285-1.098-0.536-2.209-0.708-3.348c-0.29-1.886,0.147-3.791,1.199-5.357l-1.123-0.004c-5.556-1.487-9.667-6.553-9.667-12.573    c0-7.186,5.846-13.03,13.032-13.03c0.363,0,0.72,0.029,1.074,0.058c2.07,0.159,3.946-1.184,4.45-3.191    c1.752-6.982,8-11.86,15.19-11.86c4.108,0,7.997,1.587,10.95,4.468c1.009,0.985,2.442,1.402,3.822,1.115    c0.879-0.183,1.778-0.274,2.673-0.274c5.029,0,9.521,2.826,11.725,7.379c0.773,1.601,2.465,2.555,4.235,2.373    c0.44-0.045,0.88-0.066,1.308-0.066c7.186,0,13.03,5.845,13.03,13.03c0,6.356-4.578,11.649-10.606,12.793    c0.432,1.446,0.787,2.929,1.017,4.452c0.212,1.378,0.039,2.768-0.479,4.025c10.457-1.451,18.541-10.422,18.541-21.271    C98.434,33.058,89.748,23.795,78.73,22.878z" fill="#FFFFFF"/>
	</g>
</g>
<g>
</g>
<g>
</g>
<g>
</g>
<g>
</g>
<g>
</g>
<g>
</g>
<g>
</g>
<g>
</g>
<g>
</g>
<g>
</g>
<g>
</g>
<g>
</g>
<g>
</g>
<g>
</g>
<g>
</g>
</svg>
