<svg id="svg" version="1.1" width="1000" height="571" xmlns="http://www.w3.org/2000/svg" xmlns:xlink="http://www.w3.org/1999/xlink" ><g id="svgg"><path id="path0" d="M183.200 5.580 C 176.866 6.928,176.646 7.028,173.980 9.789 C 171.220 12.648,167.670 15.165,163.325 17.344 C 161.743 18.137,159.480 19.575,158.294 20.540 C 156.229 22.223,156.094 22.272,155.047 21.723 C 153.280 20.797,152.313 21.191,151.177 23.297 C 148.662 27.960,145.767 32.019,144.540 32.602 C 142.202 33.711,132.193 33.438,130.200 32.210 C 125.882 29.551,123.682 32.996,126.374 38.199 C 128.690 42.675,128.257 45.174,124.903 46.689 C 122.752 47.661,122.000 48.388,122.000 49.493 C 122.000 50.527,121.619 50.943,116.450 55.555 C 114.629 57.180,112.980 58.925,112.788 59.433 C 112.474 60.258,112.299 60.315,111.121 59.977 C 110.397 59.770,108.443 59.600,106.779 59.600 C 103.507 59.600,102.848 59.300,102.062 57.452 C 101.618 56.410,101.639 56.332,102.287 56.608 C 110.911 60.277,121.092 48.934,123.271 33.229 C 124.025 27.796,123.946 27.696,115.000 22.728 C 111.229 20.634,100.058 21.283,97.277 23.758 C 96.465 24.481,94.360 26.036,92.600 27.214 C 90.840 28.391,87.960 30.584,86.200 32.085 C 82.829 34.962,77.946 37.610,73.119 39.180 C 71.383 39.745,70.355 40.310,70.205 40.783 C 70.044 41.291,69.403 41.599,68.103 41.794 C 61.664 42.759,60.208 44.175,59.851 49.818 C 59.475 55.769,58.775 57.159,54.869 59.725 C 51.101 62.200,50.800 62.897,50.800 69.137 C 50.800 74.841,50.377 76.270,47.532 80.169 C 41.982 87.776,43.467 91.823,50.240 87.545 C 52.534 86.096,53.094 85.917,55.504 85.862 C 57.589 85.814,58.485 85.597,59.456 84.904 L 60.713 84.008 62.456 84.974 C 63.415 85.505,64.868 86.062,65.684 86.211 C 67.140 86.478,68.355 87.639,69.561 89.918 C 70.028 90.800,69.952 90.787,67.574 89.587 L 65.100 88.338 62.250 89.022 C 56.253 90.460,55.692 91.156,58.400 93.800 C 59.280 94.659,60.000 95.461,60.000 95.581 C 60.000 95.702,56.816 95.795,52.924 95.790 C 46.273 95.780,45.786 95.831,44.824 96.635 C 44.261 97.106,43.350 97.627,42.800 97.794 C 40.333 98.544,40.282 99.185,42.413 102.718 C 44.325 105.888,43.924 106.370,41.488 103.827 C 39.472 101.723,38.394 101.533,37.001 103.037 C 33.287 107.045,34.552 114.984,39.710 120.031 C 41.579 121.861,41.970 122.494,42.206 124.082 C 42.589 126.660,43.123 127.245,45.324 127.493 C 47.838 127.776,47.690 128.070,44.587 128.958 C 41.422 129.865,41.384 129.833,41.541 126.436 C 41.697 123.058,41.191 122.400,38.433 122.400 C 36.256 122.400,35.717 121.960,34.514 119.200 C 33.506 116.886,33.183 116.661,29.679 115.830 C 26.219 115.009,25.970 115.135,25.226 118.082 C 24.763 119.915,17.315 141.189,13.031 152.916 C 12.207 155.172,11.600 157.573,11.600 158.578 L 11.600 160.324 14.700 162.137 C 20.056 165.270,28.284 168.800,30.232 168.800 C 33.233 168.800,33.693 165.628,31.012 163.431 C 29.477 162.174,25.155 157.234,24.250 155.702 C 24.081 155.416,24.389 154.636,24.978 153.865 C 26.361 152.051,26.301 151.733,24.014 148.778 C 20.785 144.606,22.262 144.935,26.505 149.333 C 31.227 154.227,31.861 154.289,36.857 150.350 C 38.127 149.348,38.347 149.286,38.571 149.868 C 38.712 150.236,38.668 150.640,38.473 150.768 C 33.838 153.801,33.388 154.742,35.431 157.128 C 37.222 159.220,37.521 159.212,40.649 156.980 C 44.065 154.543,44.045 155.540,40.600 159.474 C 39.170 161.107,38.000 162.795,38.000 163.226 C 38.000 164.207,50.219 178.556,51.197 178.722 C 52.273 178.905,62.400 169.774,62.400 168.621 C 62.400 168.132,61.743 166.888,60.941 165.858 C 59.278 163.724,58.501 160.000,59.718 160.000 C 60.071 160.000,60.536 160.600,60.798 161.395 C 61.491 163.493,66.276 167.706,67.598 167.381 C 69.535 166.905,69.627 166.616,69.344 161.948 C 69.172 159.124,69.221 157.600,69.482 157.600 C 69.703 157.600,69.989 158.977,70.116 160.659 C 70.429 164.794,70.641 164.966,75.626 165.138 C 81.098 165.327,81.783 164.903,81.397 161.570 C 80.979 157.971,82.760 157.768,86.398 160.998 C 91.303 165.354,93.612 165.159,94.303 160.328 L 94.607 158.200 96.404 158.071 C 99.727 157.832,101.396 158.330,104.193 160.395 C 108.949 163.906,112.222 164.372,113.244 161.685 C 113.808 160.201,113.357 159.383,111.591 158.689 C 110.545 158.278,110.000 157.814,110.000 157.334 C 110.000 156.151,112.047 150.294,112.872 149.116 C 114.320 147.048,117.200 140.337,117.200 139.029 C 117.200 138.135,116.738 137.109,115.753 135.820 C 114.483 134.157,114.361 133.804,114.753 132.944 C 115.797 130.653,115.375 129.496,112.650 127.173 C 108.041 123.246,109.502 122.975,114.731 126.788 C 119.165 130.021,119.106 140.456,114.598 150.000 C 111.755 156.020,111.489 157.598,113.112 158.798 C 114.177 159.585,114.289 159.861,114.104 161.241 C 113.823 163.331,115.468 164.086,120.489 164.173 C 123.405 164.224,124.176 164.379,125.177 165.120 C 127.720 167.000,135.359 167.841,136.800 166.400 C 137.791 165.409,137.897 161.787,137.013 159.150 C 136.064 156.324,137.452 158.565,138.978 162.323 C 141.229 167.868,143.402 170.567,148.798 174.521 C 150.664 175.888,151.032 176.621,150.639 178.188 C 150.302 179.530,149.240 179.777,148.162 178.764 C 147.659 178.292,146.419 177.751,145.405 177.561 C 144.109 177.319,143.264 176.862,142.556 176.020 C 141.283 174.508,139.469 174.005,135.278 174.002 L 131.956 174.000 130.923 176.300 C 128.121 182.538,127.907 182.313,146.741 192.970 C 154.565 197.398,153.835 197.583,157.960 190.123 L 161.320 184.047 163.077 186.001 C 165.432 188.620,166.880 189.448,170.825 190.430 C 175.011 191.472,175.666 191.811,180.800 195.588 C 185.873 199.321,185.772 199.262,186.564 198.959 C 187.312 198.671,187.400 197.560,186.727 196.887 C 185.796 195.956,186.720 196.000,188.842 196.988 C 190.029 197.540,191.231 197.994,191.513 197.996 C 191.796 197.998,192.966 198.477,194.113 199.059 C 197.283 200.668,201.112 200.845,203.101 199.475 C 204.101 198.786,206.732 197.909,211.000 196.843 C 220.019 194.590,219.599 194.583,220.505 196.991 C 221.683 200.125,223.046 200.983,224.003 199.195 C 224.421 198.413,224.478 198.425,225.991 199.641 C 229.673 202.600,232.580 201.540,231.251 197.723 C 230.806 196.445,230.152 194.410,229.797 193.200 C 229.442 191.990,229.052 190.758,228.930 190.461 C 228.592 189.643,230.229 190.599,232.356 192.462 C 235.061 194.831,239.318 194.318,244.866 190.957 C 250.316 187.654,250.735 185.816,247.068 181.311 C 243.866 177.376,243.931 177.381,237.063 180.535 C 233.948 181.965,230.952 183.266,230.405 183.425 L 229.409 183.714 230.511 182.357 C 233.169 179.084,233.113 179.353,231.681 176.769 C 230.105 173.923,230.118 173.914,235.545 174.072 C 241.544 174.246,242.376 173.336,242.793 166.145 C 243.102 160.818,243.265 160.624,247.192 160.929 C 250.351 161.174,255.382 162.523,255.828 163.246 C 256.269 163.959,255.547 164.328,251.192 165.616 C 243.286 167.954,242.409 169.088,244.801 173.876 C 248.847 181.972,254.601 182.435,262.410 175.293 C 268.001 170.179,282.549 163.621,288.364 163.593 C 291.237 163.579,295.484 162.357,299.398 160.418 C 302.813 158.727,304.020 158.349,307.625 157.842 C 310.613 157.423,312.781 156.841,315.025 155.857 C 316.771 155.092,319.370 154.250,320.800 153.986 C 325.321 153.152,330.491 151.604,333.800 150.092 C 336.779 148.731,337.359 148.611,342.200 148.355 C 345.060 148.203,348.307 147.951,349.416 147.794 C 352.466 147.362,355.686 148.208,360.232 150.636 C 366.670 154.074,372.329 154.498,377.524 151.931 C 380.190 150.613,380.222 150.608,386.495 150.557 C 393.173 150.504,394.150 150.251,393.919 148.635 C 393.830 148.013,393.462 147.768,392.476 147.673 C 391.482 147.577,391.186 147.378,391.290 146.873 C 391.486 145.923,392.822 146.231,393.847 147.462 C 395.509 149.460,396.185 148.660,396.314 144.543 L 396.429 140.894 395.114 140.665 C 394.391 140.539,391.717 140.316,389.171 140.168 L 384.542 139.900 383.127 141.142 C 381.578 142.502,377.635 143.196,374.645 142.635 L 373.198 142.363 374.196 141.482 C 374.880 140.878,375.807 138.835,377.139 135.000 C 380.059 126.592,385.134 115.113,387.700 111.112 C 390.301 107.056,389.831 106.460,382.092 104.014 C 375.986 102.084,373.174 96.414,372.034 83.732 C 371.477 77.548,370.826 76.545,367.000 75.990 C 359.110 74.845,356.844 74.717,351.846 75.134 C 343.856 75.801,342.321 77.083,344.568 81.212 C 345.873 83.610,345.861 83.755,344.420 83.010 C 341.523 81.512,338.625 82.645,339.822 84.807 C 340.124 85.353,340.378 86.115,340.386 86.500 C 340.415 87.950,332.949 87.136,326.815 85.020 C 325.174 84.453,321.664 83.622,319.015 83.171 C 315.639 82.597,313.125 81.887,310.600 80.794 C 297.234 75.011,296.289 74.960,290.280 79.700 C 288.782 80.882,288.763 80.885,288.960 79.949 C 289.831 75.826,290.437 72.114,290.382 71.242 C 290.265 69.415,290.369 69.232,292.000 68.400 C 294.256 67.249,294.133 66.265,291.383 63.471 C 288.115 60.150,287.877 59.346,288.215 52.781 C 288.666 44.030,287.632 43.675,281.105 50.336 C 277.338 54.180,276.731 55.013,274.932 58.800 C 272.494 63.934,272.316 64.088,268.471 64.379 C 264.109 64.709,263.366 65.495,262.922 70.253 C 262.787 71.700,262.479 73.048,262.238 73.249 C 261.236 74.085,257.196 75.865,257.713 75.244 C 262.047 70.027,262.093 69.912,261.510 65.825 C 261.426 65.231,262.094 64.665,264.368 63.404 C 268.323 61.210,270.800 59.033,270.800 57.750 C 270.800 55.510,263.790 53.724,259.825 54.954 C 257.218 55.763,256.273 55.311,252.372 51.389 C 246.139 45.122,238.263 45.015,235.979 51.166 C 233.858 56.876,230.371 61.600,228.276 61.600 C 227.162 61.600,229.210 56.974,230.401 56.800 C 231.904 56.581,233.472 54.727,233.882 52.684 C 234.005 52.070,234.892 50.694,235.853 49.625 C 237.928 47.318,237.959 47.110,236.392 45.995 L 235.185 45.135 237.021 43.092 C 240.448 39.280,240.865 37.126,238.924 33.247 C 237.339 30.078,236.362 30.043,230.565 32.944 C 224.450 36.004,223.555 36.093,228.000 33.197 C 234.089 29.231,234.602 28.332,232.795 24.790 C 231.341 21.941,229.930 22.129,225.017 25.826 C 222.803 27.492,221.830 28.000,221.220 27.806 C 220.037 27.431,220.207 27.084,221.929 26.362 C 222.954 25.932,223.668 25.265,224.116 24.320 C 224.747 22.991,224.917 22.902,227.267 22.656 C 231.958 22.166,232.586 20.523,229.700 16.286 C 227.141 12.530,226.014 11.766,220.352 9.953 C 214.460 8.066,214.569 8.068,213.547 9.800 C 212.684 11.262,211.795 11.709,212.154 10.500 C 213.139 7.185,212.821 6.756,208.656 5.774 C 205.208 4.961,204.562 5.115,203.805 6.926 C 202.906 9.077,202.185 9.454,201.364 8.202 C 200.826 7.380,200.400 7.173,199.420 7.258 C 198.552 7.332,197.889 7.089,197.267 6.467 C 195.390 4.590,189.576 4.223,183.200 5.580 M195.012 6.179 C 195.774 6.498,196.608 7.218,196.863 7.779 C 197.383 8.919,197.676 9.002,198.894 8.349 C 199.614 7.965,199.848 8.052,200.501 8.949 C 201.760 10.678,204.800 9.578,204.800 7.395 C 204.800 6.249,205.787 6.081,208.492 6.768 C 211.820 7.612,211.838 7.630,211.239 9.627 C 210.373 12.517,212.535 13.572,214.053 11.000 C 215.052 9.308,214.778 9.316,219.756 10.833 C 224.856 12.388,226.248 13.299,228.550 16.592 C 231.230 20.426,230.834 21.460,226.599 21.677 C 224.253 21.798,224.196 21.829,223.291 23.473 C 222.590 24.746,221.944 25.308,220.585 25.827 C 218.551 26.604,218.496 26.723,219.616 27.925 C 220.886 29.288,222.581 29.061,225.052 27.196 C 230.497 23.085,230.858 23.025,232.205 26.010 C 233.196 28.208,233.049 28.404,227.702 32.000 C 223.071 35.114,221.600 36.287,221.600 36.862 C 221.600 37.995,227.309 36.077,232.815 33.093 C 236.409 31.145,236.879 31.232,238.211 34.093 C 239.766 37.432,239.128 39.625,235.628 42.975 C 234.130 44.408,234.060 45.685,235.422 46.678 L 236.445 47.423 234.907 49.039 C 234.062 49.928,233.152 51.383,232.885 52.273 C 232.179 54.629,230.969 56.000,229.595 56.000 C 228.209 56.000,228.098 56.160,227.597 58.869 C 226.806 63.152,224.378 64.091,219.745 61.905 C 214.828 59.586,206.800 60.240,206.800 62.960 C 206.800 64.376,207.613 64.855,209.228 64.392 C 210.761 63.952,213.727 63.884,215.118 64.257 C 215.963 64.483,215.875 64.612,214.018 65.862 C 211.099 67.828,211.543 70.000,214.865 70.000 C 215.543 70.000,215.641 70.164,215.405 70.900 C 214.343 74.216,214.931 75.200,217.977 75.200 C 220.004 75.200,220.251 74.325,219.082 71.288 C 217.434 67.011,217.426 67.045,220.016 67.155 C 222.125 67.246,222.374 67.147,225.216 65.080 C 226.857 63.886,228.830 62.593,229.600 62.208 C 232.407 60.801,234.269 58.157,236.801 51.980 C 238.349 48.202,238.638 48.000,242.489 48.000 C 246.681 48.000,247.864 48.569,252.038 52.593 C 255.761 56.182,256.770 56.691,259.122 56.170 C 262.133 55.503,266.072 55.748,268.200 56.734 L 270.200 57.662 268.370 59.331 C 267.364 60.249,265.204 61.723,263.570 62.607 L 260.600 64.213 260.600 67.041 C 260.600 68.938,260.404 70.121,260.004 70.634 C 258.380 72.718,256.072 75.554,254.912 76.891 C 253.491 78.529,253.529 79.600,255.009 79.600 C 255.614 79.600,256.386 79.028,257.245 77.943 C 258.052 76.924,259.341 75.940,260.595 75.385 C 263.176 74.244,263.451 73.884,263.783 71.200 C 264.416 66.085,265.215 65.200,269.200 65.200 C 272.739 65.200,273.274 64.736,275.838 59.444 C 278.103 54.770,285.580 46.246,286.770 46.982 C 287.084 47.176,287.204 49.112,287.154 53.184 C 287.073 59.826,287.596 61.716,290.097 63.820 C 290.775 64.391,291.664 65.282,292.072 65.800 L 292.812 66.742 291.194 67.652 C 289.478 68.616,289.382 68.833,289.014 72.600 C 288.367 79.206,288.185 79.886,286.894 80.539 C 286.292 80.844,284.810 81.321,283.600 81.601 C 278.387 82.804,277.351 84.042,277.737 88.606 C 278.043 92.227,277.578 93.634,275.460 95.494 C 273.776 96.972,273.470 98.218,274.900 97.776 C 278.736 96.589,281.787 93.701,281.417 91.605 C 280.664 87.340,280.660 87.388,281.996 85.865 C 282.829 84.917,284.091 84.118,285.658 83.547 C 286.974 83.067,289.524 81.601,291.325 80.290 C 297.069 76.108,296.841 76.092,309.800 81.622 C 312.173 82.634,315.027 83.449,318.174 84.012 C 320.800 84.482,324.893 85.477,327.269 86.222 C 337.415 89.403,343.097 88.855,341.049 84.894 C 340.019 82.902,341.553 82.559,344.200 84.190 C 347.176 86.022,347.583 85.056,345.600 80.864 C 344.120 77.736,344.050 78.110,346.300 77.113 C 349.867 75.534,362.836 75.737,368.937 77.468 C 370.086 77.794,370.760 79.979,371.176 84.730 C 372.348 98.076,374.980 102.794,382.686 105.362 C 388.770 107.389,388.824 107.439,387.311 109.639 C 385.848 111.767,383.571 116.198,382.398 119.200 C 381.925 120.410,380.494 123.740,379.218 126.600 C 377.942 129.460,376.301 133.665,375.573 135.944 C 374.543 139.163,373.996 140.274,373.124 140.920 C 370.402 142.932,371.942 143.740,378.110 143.537 C 382.174 143.403,382.304 143.369,383.793 142.061 C 385.206 140.819,385.464 140.739,387.358 140.947 C 388.481 141.071,390.795 141.290,392.500 141.433 L 395.600 141.694 395.600 144.447 C 395.600 147.435,395.479 147.633,394.442 146.353 C 393.579 145.286,390.912 145.084,390.295 146.038 C 389.516 147.242,390.270 148.800,391.631 148.800 C 392.300 148.800,392.752 148.954,392.636 149.141 C 392.520 149.329,389.675 149.480,386.313 149.477 C 380.302 149.472,380.160 149.492,377.800 150.681 C 372.030 153.587,367.563 153.248,360.039 149.330 L 355.563 147.000 351.282 147.048 C 341.380 147.160,337.231 147.554,334.650 148.629 C 328.990 150.988,327.032 151.612,322.156 152.617 C 319.332 153.199,316.315 154.035,315.450 154.477 C 312.775 155.841,310.750 156.421,306.613 157.004 C 303.298 157.472,301.949 157.899,298.613 159.536 C 294.329 161.639,292.668 162.107,287.006 162.809 C 279.284 163.766,267.392 169.273,261.464 174.637 C 253.973 181.414,249.004 180.706,245.198 172.320 C 243.868 169.389,244.871 168.489,251.600 166.580 C 259.629 164.302,258.925 161.819,249.800 160.230 C 242.782 159.007,242.299 159.319,241.972 165.288 C 241.785 168.690,241.564 169.771,240.757 171.224 L 239.771 173.000 235.785 172.868 C 229.461 172.658,228.555 173.424,230.673 177.192 L 231.747 179.101 230.273 180.823 C 228.861 182.472,228.385 184.096,229.170 184.582 C 229.731 184.928,232.860 183.761,238.348 181.158 C 241.069 179.868,243.442 178.902,243.621 179.013 C 244.179 179.358,248.800 185.229,248.800 185.593 C 248.800 187.214,243.830 190.726,239.461 192.192 C 235.548 193.506,235.231 193.479,233.156 191.659 C 230.067 188.948,227.200 187.945,227.200 189.576 C 227.200 190.003,227.376 190.461,227.590 190.594 C 228.192 190.966,230.825 199.735,230.449 200.111 C 229.856 200.704,228.062 199.956,226.248 198.359 C 224.165 196.525,223.774 196.451,223.429 197.828 C 223.063 199.284,222.301 198.841,221.600 196.765 C 220.765 194.292,220.512 194.000,219.205 194.000 C 216.962 194.000,203.879 197.538,202.617 198.486 C 200.929 199.754,197.444 199.628,194.904 198.209 C 193.911 197.654,192.897 197.197,192.650 197.193 C 192.402 197.189,190.678 196.559,188.819 195.793 C 184.436 193.987,183.678 194.289,185.500 197.114 C 186.253 198.282,184.711 197.294,179.824 193.479 C 177.086 191.342,174.703 190.224,171.245 189.455 C 167.709 188.668,166.218 187.805,163.856 185.178 C 161.179 182.201,161.030 182.291,157.246 189.189 C 153.255 196.462,154.278 196.013,148.800 192.895 C 128.596 181.398,129.479 182.230,131.830 176.900 L 132.756 174.800 134.878 174.810 C 138.226 174.825,140.448 175.500,142.000 176.971 C 142.898 177.823,143.960 178.383,144.962 178.534 C 145.838 178.666,146.990 179.216,147.584 179.785 C 148.970 181.112,149.706 181.065,150.964 179.569 C 152.913 177.253,152.225 175.398,148.475 172.851 C 144.318 170.028,141.346 166.073,139.628 161.081 C 138.153 156.794,135.997 154.932,131.400 153.976 C 127.737 153.215,127.518 152.792,129.743 150.767 C 133.208 147.614,131.529 146.151,123.600 145.413 C 119.852 145.064,119.746 145.197,120.404 149.428 C 120.912 152.691,121.029 152.964,122.174 153.558 C 122.848 153.908,125.037 155.879,127.039 157.938 C 131.238 162.259,131.710 162.370,133.200 159.396 C 134.386 157.029,134.769 156.937,135.668 158.800 C 137.281 162.142,136.973 165.741,135.032 166.228 C 133.466 166.621,127.247 165.261,125.652 164.177 C 124.444 163.356,123.734 163.200,121.207 163.198 C 116.105 163.194,114.427 162.455,115.278 160.588 C 115.730 159.596,115.667 159.434,114.427 158.422 C 112.739 157.045,112.866 156.051,115.389 150.866 C 117.989 145.524,118.440 143.710,118.687 137.584 C 119.044 128.741,118.160 126.957,111.846 123.784 C 106.513 121.103,106.169 122.522,111.044 127.102 L 114.559 130.404 114.080 131.731 C 113.332 133.797,113.493 134.653,115.000 136.627 C 115.770 137.636,116.399 138.672,116.398 138.931 C 116.395 139.661,113.021 146.967,112.069 148.303 C 110.969 149.847,108.606 157.317,108.940 158.189 C 109.082 158.557,109.922 159.160,110.807 159.529 C 112.699 160.317,112.854 161.555,111.137 162.156 C 109.753 162.641,108.290 162.029,104.961 159.571 C 102.215 157.544,99.924 156.800,96.429 156.800 C 94.119 156.800,93.687 157.226,93.345 159.840 C 92.778 164.181,91.912 164.129,86.069 159.401 C 82.692 156.668,79.498 157.620,80.310 161.117 C 80.946 163.856,80.465 164.202,76.035 164.191 C 71.540 164.180,71.200 163.927,71.200 160.584 C 71.200 157.324,70.974 156.800,69.570 156.800 L 68.425 156.800 68.313 161.495 C 68.218 165.445,68.097 166.210,67.553 166.314 C 66.569 166.503,62.510 162.564,61.624 160.561 C 60.778 158.649,60.278 158.450,58.840 159.457 C 58.002 160.044,57.927 160.328,58.140 162.120 C 58.356 163.950,58.776 164.787,61.011 167.851 C 61.627 168.695,52.297 177.936,51.240 177.529 C 50.661 177.307,39.200 163.675,39.200 163.209 C 39.200 162.966,40.370 161.425,41.800 159.785 C 44.360 156.850,44.639 156.288,44.157 155.033 C 43.754 153.982,42.389 154.312,40.154 156.000 C 37.609 157.921,37.546 157.927,36.236 156.369 C 34.893 154.774,34.863 154.863,37.396 153.000 C 39.834 151.206,40.273 150.427,39.523 149.225 C 38.777 148.031,37.834 148.200,35.483 149.950 C 31.325 153.046,31.187 153.010,26.325 147.579 C 22.078 142.835,19.144 144.317,22.986 149.265 C 24.874 151.697,25.036 152.575,23.785 153.613 C 22.193 154.934,25.242 160.015,30.145 164.211 C 32.302 166.058,32.154 167.885,29.860 167.723 C 28.412 167.620,19.399 163.610,15.500 161.334 C 11.735 159.136,11.759 159.299,14.225 152.690 C 17.054 145.110,25.446 121.269,26.190 118.700 C 26.557 117.435,27.010 116.400,27.198 116.400 C 30.460 116.400,32.662 117.666,33.778 120.184 C 34.910 122.740,35.329 123.056,37.909 123.292 C 40.613 123.539,40.600 123.520,40.600 127.137 L 40.600 130.200 42.052 130.321 C 43.516 130.444,49.800 128.648,50.205 127.992 C 50.430 127.628,48.733 127.087,45.600 126.523 L 43.800 126.200 43.200 123.731 C 42.687 121.622,42.291 120.967,40.481 119.236 C 36.187 115.129,34.706 109.510,36.827 105.380 C 38.179 102.747,38.995 102.671,41.099 104.982 C 44.964 109.229,46.282 106.156,42.748 101.138 C 41.709 99.664,41.799 99.328,43.368 98.811 C 44.120 98.562,44.968 98.080,45.252 97.738 C 46.067 96.756,47.308 96.454,49.147 96.790 C 50.084 96.962,52.054 96.975,53.525 96.820 C 59.875 96.149,60.418 96.613,59.383 101.829 C 58.652 105.513,58.712 105.889,59.927 105.239 C 63.282 103.444,63.117 97.441,59.603 93.483 C 58.667 92.428,57.969 91.502,58.051 91.425 C 58.361 91.133,63.919 89.600,64.643 89.607 C 65.059 89.611,66.374 90.151,67.564 90.807 C 68.754 91.463,69.975 92.000,70.276 92.000 C 72.680 92.000,69.136 85.836,66.461 85.363 C 65.657 85.221,63.990 84.558,62.755 83.890 L 60.510 82.676 58.987 83.837 C 57.638 84.866,57.185 84.987,55.029 84.895 C 52.756 84.797,52.403 84.910,49.694 86.595 C 44.111 90.070,43.547 87.601,48.385 80.868 C 51.427 76.636,51.697 75.735,51.836 69.319 C 51.973 63.044,52.028 62.919,55.715 60.483 C 59.690 57.858,60.350 56.574,60.744 50.703 C 61.137 44.842,61.549 44.357,67.287 43.004 C 71.776 41.946,71.791 42.559,67.339 45.049 C 63.642 47.117,63.775 47.511,68.599 48.774 C 72.409 49.772,73.056 49.621,73.598 47.607 C 74.076 45.834,74.469 45.612,76.374 46.040 C 78.072 46.422,79.026 45.948,79.377 44.548 C 79.778 42.952,78.997 42.472,75.340 42.063 C 70.728 41.546,70.585 41.268,74.245 39.934 C 79.419 38.049,83.629 35.745,86.600 33.173 C 88.140 31.841,91.203 29.526,93.406 28.029 C 95.610 26.532,97.667 25.002,97.977 24.628 C 99.980 22.214,110.258 21.589,114.201 23.640 C 123.736 28.603,124.045 29.428,120.452 40.317 C 117.542 49.133,115.128 52.344,109.347 55.089 L 106.311 56.531 103.566 55.819 C 99.616 54.795,93.600 56.335,93.600 58.370 C 93.600 60.070,97.142 59.949,99.476 58.169 L 100.818 57.146 101.402 58.544 C 102.096 60.204,102.300 60.277,107.200 60.628 C 109.290 60.778,111.139 60.981,111.309 61.080 C 111.969 61.462,109.299 65.405,106.878 67.623 C 103.886 70.365,103.720 71.330,106.203 71.527 C 108.542 71.712,108.704 72.167,107.004 73.770 C 105.687 75.013,105.530 75.351,105.755 76.475 C 106.442 79.909,108.366 78.269,112.603 70.640 C 114.446 67.322,114.746 67.484,116.790 72.916 C 119.058 78.941,119.333 79.234,119.754 76.065 C 120.111 73.373,118.926 70.289,115.143 64.059 C 112.772 60.155,112.777 60.144,120.718 53.172 C 122.195 51.875,122.800 51.050,122.800 50.334 C 122.800 49.189,123.535 48.469,125.703 47.489 C 129.202 45.908,129.890 42.694,127.648 38.399 C 125.014 33.351,126.030 31.026,129.877 33.300 C 131.982 34.544,143.880 34.534,145.584 33.287 C 146.682 32.483,150.311 27.321,152.119 23.993 C 153.222 21.960,153.250 21.941,154.205 22.566 C 155.699 23.545,156.725 23.334,158.633 21.654 C 159.599 20.804,162.204 19.155,164.422 17.988 C 169.024 15.569,172.554 13.003,175.303 10.077 C 176.349 8.963,177.519 7.963,177.903 7.855 C 178.932 7.564,186.040 6.041,187.200 5.862 C 189.698 5.479,193.727 5.642,195.012 6.179 M78.153 43.609 C 79.039 44.456,78.020 45.274,76.416 45.003 C 74.081 44.608,73.282 45.010,72.794 46.824 C 72.300 48.658,71.835 48.745,68.400 47.649 L 66.200 46.947 67.807 46.113 C 68.690 45.654,69.950 44.734,70.607 44.067 C 71.814 42.841,77.019 42.525,78.153 43.609 M301.951 44.999 C 298.220 46.901,297.645 47.599,298.604 49.062 C 300.232 51.548,304.137 53.556,311.189 55.536 C 314.598 56.493,315.221 56.822,317.389 58.815 C 321.218 62.332,322.400 63.200,323.361 63.200 C 324.513 63.200,325.864 64.649,327.390 67.521 C 328.842 70.255,329.824 70.520,333.718 69.232 C 335.083 68.780,337.640 68.213,339.400 67.971 C 342.789 67.504,343.600 67.127,343.600 66.013 C 343.600 64.208,346.585 63.352,354.384 62.922 C 359.574 62.635,361.086 61.878,360.570 59.825 C 360.434 59.279,360.542 57.597,360.812 56.086 C 361.563 51.886,361.297 51.598,356.686 51.609 C 353.882 51.615,352.583 51.807,351.256 52.409 C 348.972 53.445,348.373 53.411,345.887 52.100 C 343.202 50.685,332.475 50.412,330.120 51.700 C 328.290 52.701,327.800 52.604,324.845 50.660 C 320.971 48.111,320.127 47.739,315.134 46.384 C 312.641 45.707,309.812 44.713,308.850 44.176 C 306.522 42.878,305.985 42.942,301.951 44.999 M308.800 45.302 C 310.010 45.888,312.800 46.844,315.000 47.428 C 319.498 48.622,320.144 48.913,324.357 51.651 C 327.734 53.846,328.354 53.954,330.606 52.742 C 333.309 51.288,341.744 51.405,345.073 52.942 C 347.832 54.217,349.598 54.233,352.800 53.013 C 354.499 52.366,359.194 52.261,359.791 52.857 C 359.912 52.979,359.893 54.901,359.747 57.128 L 359.481 61.177 358.241 61.553 C 357.558 61.759,354.930 62.034,352.400 62.164 C 345.503 62.517,342.800 63.375,342.800 65.213 C 342.800 66.281,342.012 66.673,339.262 66.972 C 337.866 67.124,335.269 67.670,333.491 68.185 C 329.613 69.308,329.442 69.259,328.139 66.650 C 326.824 64.016,324.860 61.927,323.966 62.211 C 323.242 62.440,322.102 61.611,318.177 58.000 C 315.922 55.926,315.443 55.683,311.253 54.486 C 304.884 52.667,299.200 49.595,299.200 47.973 C 299.200 47.601,306.036 43.963,306.400 44.141 C 306.510 44.194,307.590 44.717,308.800 45.302 M98.600 57.412 C 97.805 58.064,96.927 58.386,96.000 58.366 L 94.600 58.337 96.600 57.374 C 99.214 56.114,100.161 56.133,98.600 57.412 M114.984 65.945 C 116.914 69.204,118.808 73.380,118.771 74.291 C 118.755 74.681,118.420 74.098,118.028 72.995 C 115.390 65.589,114.323 65.295,111.054 71.073 C 109.832 73.233,108.382 75.540,107.831 76.200 L 106.829 77.400 106.814 76.320 C 106.804 75.547,107.197 74.938,108.200 74.173 C 110.375 72.514,109.922 70.997,107.116 70.541 L 105.761 70.321 108.408 67.661 C 109.864 66.197,111.401 64.268,111.824 63.374 C 112.544 61.850,112.620 61.800,113.035 62.574 C 113.278 63.028,114.155 64.545,114.984 65.945 M218.800 62.646 C 220.010 63.217,221.706 63.894,222.569 64.151 L 224.138 64.617 222.969 65.397 C 222.142 65.949,221.098 66.180,219.400 66.189 C 216.441 66.203,216.191 66.918,217.778 70.823 C 219.148 74.194,219.120 74.531,217.500 74.190 C 215.641 73.798,215.473 73.493,216.235 71.895 C 216.995 70.303,216.784 69.209,215.713 69.182 C 215.321 69.172,214.460 68.933,213.800 68.652 L 212.600 68.140 214.693 66.770 C 218.601 64.211,217.474 63.007,211.408 63.259 C 208.829 63.366,208.000 63.275,208.000 62.887 C 208.000 61.254,215.495 61.087,218.800 62.646 M283.783 83.152 C 280.522 84.633,279.127 87.417,280.154 90.396 C 280.831 92.363,280.512 93.175,278.466 94.688 L 277.319 95.536 278.092 94.068 C 278.736 92.844,278.827 92.078,278.642 89.462 C 278.312 84.815,278.737 84.233,283.600 82.657 C 285.116 82.166,285.237 82.492,283.783 83.152 M61.043 101.260 C 60.452 102.839,60.411 102.875,60.596 101.650 C 60.708 100.908,60.818 99.558,60.841 98.650 L 60.882 97.000 61.287 98.260 C 61.598 99.226,61.541 99.928,61.043 101.260 M128.966 147.432 L 130.933 148.120 129.279 149.663 C 126.327 152.416,126.397 154.028,129.490 154.573 C 132.759 155.149,135.053 156.089,134.074 156.451 C 133.549 156.645,132.859 157.529,132.404 158.591 C 131.393 160.949,131.374 160.943,127.977 157.175 C 126.378 155.401,124.382 153.599,123.542 153.170 C 122.012 152.390,121.900 152.176,121.400 149.072 C 121.264 148.231,121.044 147.258,120.910 146.910 C 120.586 146.065,126.079 146.421,128.966 147.432 M90.162 171.238 C 89.963 171.547,89.710 172.952,89.600 174.359 C 89.391 177.035,89.331 177.116,86.934 178.002 C 86.105 178.308,85.150 179.248,84.169 180.725 C 83.346 181.966,81.458 184.222,79.974 185.738 L 77.277 188.495 75.739 187.623 C 74.892 187.144,73.840 186.475,73.400 186.138 L 72.600 185.525 73.400 185.062 C 76.408 183.324,83.200 175.025,83.200 173.088 C 83.200 171.121,73.723 170.946,71.200 172.865 C 70.430 173.451,68.800 174.371,67.579 174.908 C 66.357 175.446,64.287 176.608,62.979 177.491 C 61.670 178.373,58.777 179.946,56.550 180.985 C 52.701 182.780,52.309 183.082,48.663 187.064 C 43.139 193.097,43.136 193.471,48.551 201.867 C 50.372 204.690,52.646 208.328,53.606 209.950 C 58.213 217.740,62.006 219.932,66.764 217.555 C 70.549 215.664,70.719 215.112,69.865 207.499 C 69.489 204.145,69.186 201.175,69.191 200.900 C 69.204 200.163,70.400 200.290,70.400 201.029 C 70.400 202.297,72.130 208.659,73.029 210.698 C 74.169 213.284,75.143 213.799,78.170 213.421 C 81.509 213.004,81.563 212.707,79.584 205.744 C 78.386 201.530,78.048 199.792,78.363 199.477 C 79.038 198.802,79.441 199.530,79.982 202.400 C 81.503 210.469,83.338 211.404,92.296 208.673 C 100.974 206.026,102.601 203.470,97.653 200.254 C 92.675 197.018,91.820 195.885,93.304 194.490 L 94.208 193.641 98.404 196.863 C 106.567 203.130,107.470 203.246,112.300 198.651 C 114.451 196.604,114.435 195.794,112.200 193.600 C 109.406 190.858,109.908 190.087,113.526 191.567 C 118.571 193.631,121.310 192.365,121.861 187.714 C 122.197 184.877,121.694 184.255,117.262 182.031 C 112.635 179.709,112.571 179.641,112.288 176.745 C 111.978 173.576,111.137 172.132,109.299 171.615 C 106.707 170.886,90.593 170.568,90.162 171.238 M102.537 172.007 C 110.716 172.529,110.842 172.612,111.459 177.861 C 111.758 180.407,111.978 180.622,116.800 183.081 L 120.600 185.019 120.588 187.355 C 120.567 191.427,118.186 192.557,113.829 190.562 C 109.272 188.475,107.684 190.639,111.176 194.176 L 113.256 196.282 110.760 198.541 C 107.146 201.811,106.465 201.655,98.856 195.823 C 94.603 192.563,93.943 192.339,92.526 193.670 C 90.421 195.647,91.595 197.636,96.900 201.084 C 99.977 203.084,99.985 203.102,98.500 204.445 C 96.509 206.245,96.081 206.453,91.519 207.829 C 83.370 210.286,82.597 209.749,80.544 200.200 C 80.242 198.795,80.050 198.585,78.966 198.480 C 76.613 198.250,76.556 198.941,78.393 205.423 C 80.375 212.417,80.365 212.480,77.305 212.320 L 75.000 212.200 74.064 210.314 C 73.550 209.277,72.650 206.442,72.064 204.015 L 71.000 199.601 69.687 199.601 C 67.898 199.600,67.874 199.786,68.765 206.727 C 69.717 214.143,69.589 214.731,66.655 216.414 C 62.154 218.995,59.173 217.032,53.576 207.800 C 51.976 205.160,49.823 201.740,48.792 200.200 C 44.368 193.591,44.387 193.351,49.800 187.416 C 52.822 184.104,53.272 183.776,57.875 181.549 C 60.556 180.252,63.279 178.745,63.927 178.200 C 64.574 177.655,66.340 176.655,67.850 175.978 C 69.360 175.300,71.170 174.308,71.871 173.773 C 73.609 172.447,82.000 172.254,82.000 173.540 C 82.000 175.010,75.593 182.302,72.700 184.125 C 71.037 185.173,71.317 186.099,73.794 187.743 C 77.480 190.191,80.255 188.626,85.060 181.388 C 86.203 179.667,86.854 179.096,88.098 178.724 C 89.931 178.174,90.853 176.998,90.736 175.356 C 90.691 174.720,90.687 173.615,90.727 172.900 L 90.800 171.600 93.500 171.601 C 94.985 171.602,99.052 171.785,102.537 172.007 M209.600 199.033 C 204.656 201.845,204.436 203.642,208.805 205.526 L 210.600 206.300 208.730 206.591 C 206.135 206.995,204.427 206.328,201.487 203.764 C 198.967 201.566,197.486 201.074,196.466 202.094 C 196.155 202.405,194.350 202.644,191.598 202.738 C 185.769 202.937,185.372 203.355,188.405 206.091 C 191.828 209.178,196.790 212.763,201.858 215.810 C 205.439 217.964,207.095 219.262,209.116 221.500 C 212.038 224.736,213.176 225.129,214.756 223.447 C 215.250 222.921,216.334 222.385,217.174 222.251 C 219.080 221.946,219.449 221.495,219.834 219.000 C 220.076 217.427,220.193 217.205,220.380 217.962 C 221.234 221.414,224.918 218.860,226.628 213.630 C 227.875 209.817,225.716 206.476,223.205 208.333 L 222.101 209.149 220.976 207.975 C 220.357 207.329,219.607 206.800,219.310 206.800 C 218.939 206.800,219.025 206.525,219.584 205.925 C 221.287 204.097,220.741 202.736,217.303 200.245 C 213.699 197.633,212.417 197.431,209.600 199.033 M216.550 201.027 C 219.699 203.327,219.864 203.559,219.215 204.771 C 218.202 206.664,214.873 206.653,209.736 204.739 C 205.962 203.332,206.184 201.976,210.546 199.802 C 213.184 198.488,213.029 198.456,216.550 201.027 M200.795 204.627 C 203.887 207.386,204.447 207.600,208.564 207.600 C 211.368 207.600,211.987 207.723,212.600 208.400 C 213.549 209.448,215.714 209.442,217.423 208.386 L 218.740 207.572 220.123 208.786 C 221.638 210.116,222.831 210.327,223.600 209.400 C 225.784 206.768,226.709 211.557,224.733 215.266 C 223.035 218.450,221.200 219.378,221.200 217.053 C 221.200 213.554,219.301 214.859,218.913 218.625 C 218.680 220.877,218.672 220.885,216.150 221.391 C 215.463 221.529,214.486 222.082,213.981 222.621 C 212.821 223.855,212.599 223.846,211.497 222.520 C 208.901 219.395,207.039 217.664,204.934 216.416 C 197.004 211.715,187.709 204.795,188.218 203.971 C 188.344 203.767,190.102 203.597,192.124 203.594 C 194.501 203.590,196.153 203.392,196.800 203.033 C 198.217 202.247,198.056 202.183,200.795 204.627 M215.800 207.207 C 216.942 207.225,216.962 207.254,216.224 207.813 C 215.141 208.631,214.253 208.546,213.362 207.537 C 212.603 206.678,212.604 206.675,213.600 206.932 C 214.150 207.073,215.140 207.197,215.800 207.207 " stroke="none" fill="#000000" fill-rule="evenodd"></path></g></svg>